<svg version="1.2" xmlns="http://www.w3.org/2000/svg" viewBox="0 0 720 240" width="720" height="240">
	<style>
		.s0 { fill: #0798a8 } 
		.s1 { fill: #0798a8;stroke: #0798a8;stroke-linecap: round;stroke-linejoin: round;stroke-width: 11 } 
		.s2 { fill: #ffffff } 
	</style>
	<g id="Backgroud">
	</g>
	<g>
		<filter id="f0">
			<feFlood flood-color="#e657aa" flood-opacity="1" />
			<feBlend mode="normal" in2="SourceGraphic"/>
			<feComposite in2="SourceAlpha" operator="in" />
		</filter>
		<g id="Folder 1" filter="url(#f0)">
			<path class="s0" d="m47.7 146.1c0-1.6 0.4-2.8 1.4-3.7 1-0.9 2.1-1.3 3.5-1.3h11.8c6.2 0 11.1 2.2 14.9 6.6 3.5 4.1 5.3 9.1 5.3 14.9 0 6.9-2 12.4-6.1 16.5-3.7 3.8-8.5 5.8-14.1 5.8h-11.8c-1.4 0-2.5-0.4-3.5-1.4q-1.5-1.35-1.5-3.6zm9.8 29.7h5.2c3.7 0 6.6-1.2 8.5-3.6 1.8-2.2 2.8-5.3 2.8-9.4q0-5.7-2.7-9c-1.9-2.2-4.6-3.4-8.2-3.4h-5.7c0.1 0 0.1 25.4 0.1 25.4z"/>
			<path class="s0" d="m97.3 149.2c1.2-3.1 2.1-5.2 2.9-6.3 1.4-1.8 3.1-2.7 5.3-2.7 1.8 0 3.3 0.5 4.5 1.6 1.2 1.1 2.5 3.5 3.9 7.5l9.5 25.9c0.6 1.7 1.1 3 1.2 3.7 0.2 0.7 0.2 1.6 0.2 2.3 0 1.3-0.4 2.2-1.3 3-0.9 0.8-2 1.1-3.5 1.1-1.5 0-2.7-0.4-3.5-1.4-0.6-0.6-1.2-1.9-1.7-3.5l-1.2-3.9h-16.1l-1.2 3.9c-0.5 1.6-1.1 2.8-1.7 3.5-0.9 1-1.9 1.4-3.5 1.4-1.4 0-2.6-0.4-3.4-1.2-0.9-0.7-1.3-1.7-1.3-3 0-0.7 0.1-1.6 0.3-2.5 0.2-0.9 0.5-2.1 1.2-3.7zm8.5 2.1l-5.4 16.1h10.3z"/>
			<path class="s0" d="m153.3 145.3c0.5-1.5 1.1-2.6 1.6-3.1 0.9-1 2.1-1.4 3.8-1.4 1.4 0 2.6 0.4 3.4 1.4 1 1 1.4 2.1 1.4 3.4 0 0.4-0.1 1-0.3 1.6-0.2 0.6-0.4 1.3-0.7 2l-12.3 30.8c-0.7 1.9-1.3 3.1-1.7 3.6-0.9 1.2-2.1 1.7-3.7 1.7-1.6 0-2.8-0.5-3.7-1.7q-0.75-0.9-1.8-3.6l-12.1-30.7c-0.2-0.4-0.4-1.1-0.6-1.8-0.2-0.9-0.4-1.4-0.4-1.8 0-1.3 0.4-2.5 1.4-3.4 0.9-1 2-1.5 3.5-1.5 1.7 0 2.9 0.4 3.7 1.4 0.5 0.6 1.2 1.7 1.7 3.2l8.4 22.4z"/>
			<path class="s0" d="m176.9 180c0 1.7-0.4 3-1.4 3.9-1 1-2.1 1.4-3.5 1.4-1.5 0-2.7-0.4-3.6-1.4-0.9-0.9-1.4-2.2-1.4-3.9v-34c0-1.7 0.4-3 1.4-3.9 1-1 2.1-1.4 3.5-1.4 1.5 0 2.7 0.4 3.6 1.4 0.9 0.9 1.4 2.2 1.4 3.9z"/>
			<path class="s0" d="m180.3 146.1c0-1.6 0.4-2.8 1.4-3.7 1-0.9 2.1-1.3 3.5-1.3h15.1q2.4 0 3.6 1.2c0.9 0.9 1.3 1.9 1.3 3.4 0 1.4-0.4 2.6-1.3 3.3-0.9 0.9-2 1.2-3.6 1.2h-10.1v8h9.3c1.5 0 2.8 0.4 3.6 1.2 0.9 0.9 1.3 1.9 1.3 3.3 0 3.1-1.6 4.6-4.9 4.6h-9.3v8.2h10.6q2.4 0 3.6 1.2c0.9 0.9 1.3 1.9 1.3 3.4 0 1.4-0.4 2.6-1.3 3.3-0.9 0.9-2.1 1.3-3.6 1.3h-15.5c-1.4 0-2.5-0.4-3.5-1.4q-1.5-1.35-1.5-3.6z"/>
			<path class="s0" d="m216.7 156.9q-0.75 1.35-1.8 2.1c-0.6 0.5-1.5 0.7-2.6 0.7q-2.1 0-3.3-1.2c-0.8-0.8-1.3-1.8-1.3-3.1 0-0.6 0.1-1.2 0.3-1.7q0.15-0.3 0.6-1.2l5-9.1c0.5-0.9 1.1-1.5 1.6-1.9 0.7-0.5 1.7-0.9 2.7-0.9q2.1 0 3.3 1.2c0.9 0.7 1.3 1.7 1.3 3 0 0.5-0.1 1.1-0.2 1.5-0.2 0.4-0.4 1-0.6 1.5z"/>
			<path class="s0" d="m228.7 173.5c0.5 0 2 0.4 4.4 1.3 2.3 0.9 4.4 1.3 6.3 1.3 1.7 0 3.1-0.4 3.9-1.2 0.9-0.9 1.3-1.8 1.3-2.9 0-1.7-1.3-3.1-3.9-4.1-0.5-0.2-2.3-0.9-5.4-1.8-4.3-1.4-7-2.9-8.4-4.8-1.4-1.8-2-4.2-2-7 0-4.6 1.6-8.1 4.7-10.6 2.9-2.2 6.5-3.4 10.9-3.4 3.9 0 6.9 0.6 9.1 1.8 2.1 1.2 3.2 2.8 3.2 4.8q0 2.1-1.2 3.3c-0.9 0.9-1.9 1.4-3.2 1.4-0.7 0-2.3-0.3-4.8-1.1q-2.1-0.6-3.6-0.6c-1.4 0-2.5 0.3-3.3 1-0.9 0.6-1.3 1.5-1.3 2.6 0 1.3 1.1 2.2 3.3 3.1 2.2 0.7 4.2 1.5 5.9 2 3.2 1.1 5.7 2.3 7.3 3.9 2.2 2.1 3.3 5.1 3.3 8.9q0 7.2-4.8 11.1c-3 2.3-6.9 3.5-11.7 3.5-3.5 0-6.6-0.5-9.4-1.7q-5.1-2.1-5.1-5.4c0-1.5 0.4-2.7 1.2-3.7 0.6-1.2 1.8-1.7 3.3-1.7z"/>
			<path class="s0" d="m423.8 146.1c0-1.6 0.4-2.8 1.4-3.7 1-0.9 2.1-1.3 3.5-1.3h11.6c3.7 0 6.7 1.1 8.9 3.2 2.2 2.1 3.3 4.9 3.3 8.3 0 2-0.6 3.7-1.8 5.3-0.9 1.2-2 2.1-3.4 3 2.7 0.5 4.8 1.8 6.3 3.7 1.6 1.9 2.3 4.3 2.3 7 0 3.7-1.2 6.8-3.5 9.2-2.7 2.7-6.5 4.1-11.5 4.1h-12.3c-1.4 0-2.5-0.4-3.5-1.4q-1.5-1.35-1.5-3.6v-33.8zm9.9 12.2h4.5q4.5 0 4.5-4.2 0-4.2-4.5-4.2h-4.5zm0 17.8h6.2c1.8 0 3.2-0.3 4.2-1 1.2-0.7 1.8-1.9 1.8-3.5 0-1.5-0.6-2.7-1.8-3.4-1.2-0.7-2.6-1.2-4.2-1.2h-6.2z"/>
			<path class="s0" d="m469.5 167.4c0 2.8 0.9 5 2.7 6.7 1.6 1.5 3.7 2.3 6.3 2.3 2.6 0 4.6-0.9 6.4-2.5 1.7-1.6 2.6-3.8 2.6-6.6v-21.2c0-1.7 0.4-3 1.4-3.9 1-0.9 2.1-1.4 3.5-1.4 1.5 0 2.7 0.4 3.6 1.4 0.9 0.9 1.4 2.2 1.4 3.9v21.2c0 5.7-1.7 10.2-5.2 13.5-3.5 3.3-8 5-13.7 5-5.5 0-10-1.6-13.4-4.9-3.5-3.4-5.3-8-5.3-13.7v-21.2c0-1.7 0.4-3 1.4-3.9 1-1 2.1-1.4 3.5-1.4 1.5 0 2.7 0.4 3.6 1.4 0.9 0.9 1.4 2.2 1.4 3.9v21.2h-0.2z"/>
			<path class="s0" d="m500.6 146.1c0-1.6 0.4-2.8 1.4-3.7 1-0.9 2.1-1.3 3.5-1.3h11.8c4.4 0 7.9 1.3 10.6 3.7 2.7 2.5 3.9 5.8 3.9 9.8 0 3.2-0.9 6-2.7 8.1q-2.7 3.15-7.5 4.2l8.6 9.4c0.6 0.7 1.2 1.4 1.6 2.1 0.3 0.6 0.5 1.4 0.5 2.1 0 1.1-0.3 1.9-1.1 2.9q-1.5 1.8-3.9 1.8c-1.2 0-2.1-0.2-2.7-0.5-0.6-0.3-1.3-1-2-1.9l-12.2-15.5-0.1 12.6c0 1.7-0.4 3-1.4 3.9-1 1-2.1 1.4-3.5 1.4-1.5 0-2.7-0.4-3.6-1.4-0.9-0.9-1.4-2.2-1.4-3.9zm9.8 13.9h6.5c1.6 0 2.8-0.4 3.7-1.4 0.9-1 1.4-2.1 1.4-3.5 0-1.4-0.4-2.6-1.4-3.4-1-0.9-2.1-1.3-3.6-1.3h-6.5v9.6z"/>
			<path class="s0" d="m571 158.9c3.5 0 5.2 2 5.2 6.1 0 6-1.8 11-5.3 14.8-3.6 4.1-8.4 6.1-14.4 6.1-6.6 0-11.8-2.2-15.8-6.7-3.7-4.3-5.5-9.6-5.5-16.2 0-6.6 2-12.1 6.1-16.4 4.1-4.3 9.1-6.5 15.3-6.5 4.4 0 8.2 0.9 11.4 2.5 3.5 1.8 5.3 4.2 5.3 7.1 0 1.3-0.4 2.3-1.2 3.1-0.7 0.7-1.9 1.2-3.3 1.2-1 0-2.6-0.7-4.8-2.2-2.3-1.5-4.7-2.2-7.1-2.2-3.4 0-6.1 1.3-8.1 3.8-2 2.6-3.1 5.9-3.1 9.8 0 3.7 0.9 6.9 2.6 9.4 2 2.9 4.8 4.4 8.4 4.4 2.6 0 4.7-0.7 6.4-2.3 1.7-1.5 2.7-3.6 2.9-6.2h-5.7q-2.4 0-3.6-1.2c-0.9-0.9-1.3-1.9-1.3-3.3 0-3.1 1.6-4.6 4.9-4.6h10.8v-0.5z"/>
			<path class="s0" d="m578.8 146.1c0-1.6 0.4-2.8 1.4-3.7 1-0.9 2.1-1.3 3.5-1.3h15.1q2.4 0 3.6 1.2c0.9 0.9 1.3 1.9 1.3 3.4 0 1.4-0.4 2.6-1.3 3.3-0.9 0.9-2 1.2-3.6 1.2h-10.2v8h9.3c1.5 0 2.8 0.4 3.6 1.2 0.9 0.9 1.3 1.9 1.3 3.3 0 3.1-1.6 4.6-4.9 4.6h-9.3v8.2h10.6q2.4 0 3.6 1.2c0.9 0.9 1.3 1.9 1.3 3.4 0 1.4-0.4 2.6-1.3 3.3-0.9 0.9-2.1 1.3-3.6 1.3h-15.5c-1.4 0-2.5-0.4-3.5-1.4q-1.5-1.35-1.5-3.6v-33.5h0.1z"/>
			<path class="s0" d="m606.7 146.1c0-1.6 0.4-2.8 1.4-3.7 1-0.9 2.1-1.3 3.5-1.3h11.8c4.4 0 7.9 1.3 10.6 3.7 2.7 2.5 3.9 5.8 3.9 9.8 0 3.2-0.9 6-2.7 8.1q-2.7 3.15-7.5 4.2l8.6 9.4c0.6 0.7 1.2 1.4 1.6 2.1 0.3 0.6 0.5 1.4 0.5 2.1 0 1.1-0.3 1.9-1.1 2.9q-1.5 1.8-3.9 1.8c-1.2 0-2.1-0.2-2.7-0.5-0.6-0.3-1.3-1-2-1.9l-12.2-15.5-0.1 12.6c0 1.7-0.4 3-1.4 3.9-1 1-2.1 1.4-3.5 1.4-1.5 0-2.7-0.4-3.6-1.4-0.9-0.9-1.4-2.2-1.4-3.9zm9.8 13.9h6.5c1.6 0 2.8-0.4 3.7-1.4 0.9-1 1.4-2.1 1.4-3.5 0-1.4-0.4-2.6-1.4-3.4-1-0.9-2.1-1.3-3.6-1.3h-6.5v9.6z"/>
			<path class="s0" d="m645.1 173.5c0.5 0 2 0.4 4.4 1.3 2.3 0.9 4.4 1.3 6.3 1.3 1.7 0 3.1-0.4 3.9-1.2 0.9-0.9 1.3-1.8 1.3-2.9 0-1.7-1.3-3.1-3.9-4.1-0.5-0.2-2.3-0.9-5.4-1.8-4.3-1.4-7-2.9-8.4-4.8-1.4-1.8-2-4.2-2-7 0-4.6 1.6-8.1 4.7-10.6 2.9-2.2 6.5-3.4 10.9-3.4 3.9 0 6.9 0.6 9.1 1.8 2.1 1.2 3.2 2.8 3.2 4.8q0 2.1-1.2 3.3c-0.9 0.9-1.9 1.4-3.2 1.4-0.7 0-2.3-0.3-4.8-1.1q-2.1-0.6-3.6-0.6c-1.4 0-2.5 0.3-3.3 1-0.9 0.6-1.3 1.5-1.3 2.6 0 1.3 1.1 2.2 3.3 3.1 2.2 0.7 4.2 1.5 5.9 2 3.2 1.1 5.7 2.3 7.3 3.9 2.2 2.1 3.3 5.1 3.3 8.9q0 7.2-4.8 11.1c-3 2.3-6.9 3.5-11.7 3.5-3.5 0-6.6-0.5-9.4-1.7q-5.1-2.1-5.1-5.4c0-1.5 0.4-2.7 1.2-3.7 0.8-1.2 1.8-1.7 3.3-1.7z"/>
			<path class="s1" d="m382.2 192.8c-3 0-6-1.2-7.9-3.3l-11.6-12.4c-4.2-4.4-11.6-4.4-15.8 0l-7.7 8.1c-3.8 4.1-10.8 4.4-15 0.7-4.1-3.4-10.3-3.4-14.3 0l-4.9 4.3c-1.9 1.7-4.5 2.6-7.1 2.6h-26v2.9 0.6 0.6c0 0.4 0 0.9 0.1 1.2 1 13.8 12.4 24.7 26.5 24.7h83c14.1 0 25.5-10.9 26.5-24.7 0.1-0.4 0.1-0.7 0.1-1.2v-0.6-0.6-2.9z"/>
			<path class="s1" d="m407.6 146.1c0-37.5-30.4-67.9-67.9-67.9-37.5 0-67.9 30.4-67.9 67.9h0.1c-0.7 6.2 0.4 13.5 10 13.5 8.2 0 13.3-9.6 21.5-9.6 8.2 0 11.9 9.6 20.3 9.6 8.2 0 7.8-9.6 16-9.6 8.2 0 8.4 9.6 16.6 9.6 8.2 0 11.4-9.6 19.6-9.6 8.2 0 13.1 9.6 21.3 9.6 9.6 0 10.9-7.5 10.2-13.5z"/>
		</g>
		<path fill-rule="evenodd" class="s2" d="m294 129.1c-1.82 0-3.3-1.48-3.3-3.3 0-1.82 1.48-3.3 3.3-3.3 1.82 0 3.3 1.48 3.3 3.3 0 1.82-1.48 3.3-3.3 3.3z"/>
		<path fill-rule="evenodd" class="s2" d="m311.7 129.1c-1.82 0-3.3-1.48-3.3-3.3 0-1.82 1.48-3.3 3.3-3.3 1.82 0 3.3 1.48 3.3 3.3 0 1.82-1.48 3.3-3.3 3.3z"/>
		<path fill-rule="evenodd" class="s2" d="m298.9 114.8c-0.88 0-1.6-0.72-1.6-1.6 0-0.88 0.72-1.6 1.6-1.6 0.88 0 1.6 0.72 1.6 1.6 0 0.88-0.72 1.6-1.6 1.6z"/>
		<path class="s2" d="m371 112.4c0.3 1.8-0.9 3.5-2.7 3.8-1.8 0.3-3.5-0.9-3.8-2.7-0.3-1.8 0.9-3.5 2.7-3.8 1.8-0.2 3.5 1 3.8 2.7z"/>
		<path class="s2" d="m388.5 109.2c0.3 1.8-0.9 3.5-2.7 3.8-1.8 0.3-3.5-0.9-3.8-2.7-0.3-1.8 0.9-3.5 2.7-3.8 1.7-0.1 3.4 1 3.8 2.7z"/>
		<path fill-rule="evenodd" class="s2" d="m356.8 107.9c-0.88 0-1.6-0.72-1.6-1.6 0-0.88 0.72-1.6 1.6-1.6 0.88 0 1.6 0.72 1.6 1.6 0 0.88-0.72 1.6-1.6 1.6z"/>
		<path fill-rule="evenodd" class="s2" d="m385.2 127.4c-0.88 0-1.6-0.72-1.6-1.6 0-0.88 0.72-1.6 1.6-1.6 0.88 0 1.6 0.72 1.6 1.6 0 0.88-0.72 1.6-1.6 1.6z"/>
		<path fill-rule="evenodd" class="s2" d="m380 118c-0.88 0-1.6-0.72-1.6-1.6 0-0.88 0.72-1.6 1.6-1.6 0.88 0 1.6 0.72 1.6 1.6 0 0.88-0.72 1.6-1.6 1.6z"/>
		<path fill-rule="evenodd" class="s2" d="m331.5 111.6c-1.82 0-3.3-1.48-3.3-3.3 0-1.82 1.48-3.3 3.3-3.3 1.82 0 3.3 1.48 3.3 3.3 0 1.82-1.48 3.3-3.3 3.3z"/>
	</g>
</svg>